<?xml version="1.0" standalone="no"?>
<!DOCTYPE svg PUBLIC "-//W3C//DTD SVG 20010904//EN"
 "http://www.w3.org/TR/2001/REC-SVG-20010904/DTD/svg10.dtd">
<svg version="1.0" xmlns="http://www.w3.org/2000/svg"
 width="1024.000000pt" height="1024.000000pt" viewBox="0 0 1024.000000 1024.000000"
 preserveAspectRatio="xMidYMid meet">

<g transform="translate(0.000000,1024.000000) scale(0.100000,-0.100000)"
fill="#000000" stroke="none">
<path d="M4995 8794 c-452 -35 -794 -150 -1087 -366 -102 -76 -216 -177 -267
-238 l-43 -51 113 57 c154 77 317 146 436 184 763 246 1507 134 2117 -318 174
-129 506 -481 575 -611 9 -16 -5 -25 -140 -87 -82 -37 -148 -71 -147 -76 4
-10 862 -667 866 -663 2 2 14 99 28 217 26 227 82 632 113 813 10 61 18 111
18 111 -1 1 -74 -31 -161 -72 -88 -41 -163 -74 -167 -74 -5 0 -40 44 -80 98
-442 597 -1051 974 -1709 1056 -129 16 -377 27 -465 20z m515 -38 c150 -26
240 -48 233 -59 -3 -6 -1 -7 6 -3 16 10 112 -15 104 -27 -3 -6 -1 -7 6 -3 15
9 142 -34 135 -46 -3 -4 1 -5 9 -2 8 3 17 -2 20 -10 4 -9 12 -16 19 -16 9 0 9
3 -2 11 -12 9 -11 9 5 4 11 -4 28 -10 37 -12 10 -3 15 -10 11 -16 -3 -6 -1 -7
5 -3 14 9 183 -75 175 -87 -3 -6 -1 -7 5 -3 13 8 73 -24 67 -35 -3 -4 3 -6 13
-5 9 0 16 -5 14 -12 -1 -8 2 -11 8 -7 6 4 33 -7 59 -25 35 -22 48 -36 44 -49
-6 -23 22 -48 30 -27 4 10 1 13 -9 9 -8 -3 -14 1 -14 11 0 21 6 20 41 -5 26
-18 28 -23 17 -37 -12 -15 -11 -15 4 -4 15 12 23 9 65 -23 105 -80 192 -165
187 -183 -5 -14 -4 -14 4 -3 9 12 23 2 77 -52 37 -39 63 -73 59 -79 -4 -6 -3
-8 3 -5 15 9 87 -69 78 -84 -5 -7 -4 -10 2 -6 14 9 86 -80 77 -94 -4 -7 -3 -9
3 -6 14 9 37 -19 27 -34 -4 -7 -3 -9 3 -6 6 4 16 0 23 -8 10 -12 10 -19 -1
-32 -12 -16 -12 -17 2 -6 13 11 19 7 39 -19 13 -17 23 -38 23 -45 0 -7 4 -13
8 -13 4 0 62 25 129 55 67 30 127 52 132 48 6 -3 8 -1 5 4 -4 6 7 16 25 22 42
15 41 15 34 -21 -24 -119 -101 -672 -126 -898 -15 -149 -20 -171 -31 -165 -5
4 -7 11 -4 16 3 5 0 7 -7 4 -7 -2 -29 10 -48 27 -19 17 -29 27 -21 23 9 -6 12
-4 7 4 -4 6 -11 9 -15 7 -4 -3 -18 2 -30 10 -19 13 -20 18 -9 32 12 15 11 16
-4 3 -14 -11 -21 -11 -33 -1 -8 7 -12 17 -8 24 3 6 3 8 -2 4 -10 -9 -47 10
-41 21 3 4 -1 8 -8 8 -22 0 -216 154 -209 166 3 6 1 7 -6 3 -7 -4 -63 33 -139
91 -70 55 -157 122 -194 150 l-67 51 70 31 c39 17 75 28 81 25 6 -4 8 -3 5 3
-4 6 24 24 68 44 41 18 75 37 75 42 0 5 -9 22 -21 38 -11 16 -17 34 -13 40 4
8 3 9 -4 5 -13 -8 -35 28 -24 39 4 3 2 5 -5 3 -15 -4 -124 132 -116 145 3 6 1
7 -5 3 -12 -7 -104 93 -96 106 3 5 0 7 -8 6 -7 -2 -12 4 -10 12 2 8 0 12 -4 7
-10 -10 -95 74 -87 86 3 6 1 7 -6 3 -15 -10 -43 13 -34 28 3 6 3 8 -2 4 -10
-10 -131 92 -127 106 2 6 0 8 -3 4 -11 -11 -47 11 -39 24 4 6 3 8 -3 5 -6 -4
-24 3 -39 15 -37 27 -54 44 -35 33 10 -5 12 -4 7 4 -4 6 -12 9 -17 5 -5 -3
-38 12 -72 34 -34 21 -86 51 -115 66 -32 16 -50 31 -46 38 4 6 3 8 -4 5 -15
-10 -43 3 -35 16 3 6 1 7 -6 3 -6 -4 -51 9 -99 30 -90 38 -113 51 -75 41 13
-3 25 -2 28 2 2 4 -15 8 -38 8 -23 0 -99 16 -169 36 -227 64 -352 81 -608 81
-175 0 -252 -4 -345 -19 -66 -11 -134 -19 -152 -20 -17 0 -30 -2 -28 -5 2 -3
-47 -18 -108 -34 -62 -15 -168 -50 -237 -76 -166 -63 -169 -64 -150 -51 12 8
11 10 -8 8 -12 -1 -21 -6 -18 -12 5 -14 -121 -78 -135 -70 -5 4 -9 2 -9 -3 0
-5 -24 -21 -52 -36 l-53 -27 54 55 c30 30 59 52 64 49 6 -3 7 -2 4 4 -6 10 32
45 131 122 36 28 46 32 53 20 8 -11 9 -9 7 6 -2 14 2 20 14 19 10 -1 16 3 15
10 -1 6 6 10 15 10 10 -1 16 2 13 6 -19 31 439 237 476 214 8 -5 9 -3 4 6 -6
10 -1 12 26 7 21 -5 29 -4 20 2 -16 10 67 31 224 55 152 24 153 24 415 21 169
-2 274 -8 340 -19z"/>
<path d="M4848 8751 c12 -7 62 -4 62 5 0 2 -17 4 -37 4 -24 0 -33 -3 -25 -9z"/>
<path d="M5357 8746 c-4 -10 -1 -13 9 -9 7 3 14 9 14 14 0 14 -17 10 -23 -5z"/>
<path d="M5530 8729 c0 -5 -5 -7 -12 -3 -7 4 -8 3 -4 -5 6 -9 12 -9 24 1 10 7
19 14 21 15 2 2 -3 3 -12 3 -9 0 -17 -5 -17 -11z"/>
<path d="M5690 8699 c0 -5 5 -7 10 -4 6 3 10 8 10 11 0 2 -4 4 -10 4 -5 0 -10
-5 -10 -11z"/>
<path d="M4408 8663 c-10 -2 -18 -8 -18 -12 0 -12 25 -9 38 6 13 13 10 14 -20
6z"/>
<path d="M5075 8651 c-3 -5 -2 -12 3 -15 5 -3 9 1 9 9 0 17 -3 19 -12 6z"/>
<path d="M5800 8650 c0 -5 5 -10 11 -10 5 0 7 5 4 10 -3 6 -8 10 -11 10 -2 0
-4 -4 -4 -10z"/>
<path d="M5858 8643 c7 -3 16 -2 19 1 4 3 -2 6 -13 5 -11 0 -14 -3 -6 -6z"/>
<path d="M4285 8610 c3 -5 8 -10 11 -10 2 0 4 5 4 10 0 6 -5 10 -11 10 -5 0
-7 -4 -4 -10z"/>
<path d="M4220 8580 c-6 -11 -8 -20 -6 -20 3 0 10 9 16 20 6 11 8 20 6 20 -3
0 -10 -9 -16 -20z"/>
<path d="M5610 8586 c0 -2 7 -7 16 -10 8 -3 12 -2 9 4 -6 10 -25 14 -25 6z"/>
<path d="M5150 8554 c0 -8 5 -12 10 -9 6 4 8 11 5 16 -9 14 -15 11 -15 -7z"/>
<path d="M4940 8545 c-24 -14 -24 -14 -3 -15 30 0 54 10 47 21 -7 12 -14 11
-44 -6z"/>
<path d="M5110 8541 c0 -6 4 -13 10 -16 6 -3 7 1 4 9 -7 18 -14 21 -14 7z"/>
<path d="M4053 8500 c-18 -11 -33 -23 -33 -26 0 -4 6 -2 13 5 9 7 17 7 24 0 6
-6 13 -1 21 16 14 30 15 30 -25 5z"/>
<path d="M5410 8480 c8 -5 20 -10 25 -10 6 0 3 5 -5 10 -8 5 -19 10 -25 10 -5
0 -3 -5 5 -10z"/>
<path d="M4298 8473 c6 -2 18 -2 25 0 6 3 1 5 -13 5 -14 0 -19 -2 -12 -5z"/>
<path d="M4350 8470 c-9 -6 -10 -10 -3 -10 6 0 15 5 18 10 8 12 4 12 -15 0z"/>
<path d="M3815 8331 c-3 -5 -1 -12 5 -16 5 -3 10 1 10 9 0 18 -6 21 -15 7z"/>
<path d="M6080 8316 c0 -2 8 -10 18 -17 15 -13 16 -12 3 4 -13 16 -21 21 -21
13z"/>
<path d="M6575 8281 c-3 -5 -2 -12 3 -15 5 -3 9 1 9 9 0 17 -3 19 -12 6z"/>
<path d="M3714 8238 c-19 -23 -19 -23 1 -7 11 9 27 19 35 22 13 5 13 6 -1 6
-9 1 -24 -9 -35 -21z"/>
<path d="M6615 8251 c-3 -5 -2 -12 3 -15 5 -3 9 1 9 9 0 17 -3 19 -12 6z"/>
<path d="M6066 8231 c-3 -5 1 -11 9 -14 9 -4 12 -1 8 9 -6 16 -10 17 -17 5z"/>
<path d="M6226 8118 c3 -5 10 -6 15 -3 13 9 11 12 -6 12 -8 0 -12 -4 -9 -9z"/>
<path d="M6594 8092 c-8 -5 -4 -13 12 -25 19 -14 22 -15 18 -2 -3 8 -10 15
-16 15 -5 0 -6 5 -3 10 7 12 4 12 -11 2z"/>
<path d="M6867 8029 c7 -7 15 -10 18 -7 3 3 -2 9 -12 12 -14 6 -15 5 -6 -5z"/>
<path d="M6395 7991 c-3 -5 -1 -12 5 -16 5 -3 10 1 10 9 0 18 -6 21 -15 7z"/>
<path d="M6718 7943 c7 -3 16 -2 19 1 4 3 -2 6 -13 5 -11 0 -14 -3 -6 -6z"/>
<path d="M6780 7920 c-9 -6 -10 -10 -3 -10 6 0 15 5 18 10 8 12 4 12 -15 0z"/>
<path d="M6965 7910 c-3 -5 -1 -10 4 -10 6 0 11 5 11 10 0 6 -2 10 -4 10 -3 0
-8 -4 -11 -10z"/>
<path d="M6650 7890 c-9 -6 -10 -10 -3 -10 6 0 15 5 18 10 8 12 4 12 -15 0z"/>
<path d="M6625 7760 c3 -5 8 -10 11 -10 2 0 4 5 4 10 0 6 -5 10 -11 10 -5 0
-7 -4 -4 -10z"/>
<path d="M6930 7744 c0 -8 5 -12 10 -9 6 4 8 11 5 16 -9 14 -15 11 -15 -7z"/>
<path d="M7525 7720 c-19 -8 -19 -9 -1 -9 20 -1 20 -1 0 -17 -18 -14 -18 -15
4 -4 12 6 22 17 22 25 0 8 -1 15 -2 14 -2 0 -12 -4 -23 -9z"/>
<path d="M7115 7689 c-3 -4 2 -6 10 -5 21 3 28 13 10 13 -9 0 -18 -4 -20 -8z"/>
<path d="M6701 7673 c7 -12 15 -20 18 -17 3 2 -3 12 -13 22 -17 16 -18 16 -5
-5z"/>
<path d="M7391 7661 c-10 -7 -7 -9 12 -8 14 1 23 5 20 10 -6 9 -15 9 -32 -2z"/>
<path d="M7330 7630 c-12 -8 -10 -10 8 -10 13 0 20 4 17 10 -7 12 -6 12 -25 0z"/>
<path d="M7521 7624 c0 -11 3 -14 6 -6 3 7 2 16 -1 19 -3 4 -6 -2 -5 -13z"/>
<path d="M6766 7585 c6 -14 44 -17 44 -4 0 6 -4 7 -10 4 -5 -3 -10 -2 -10 3 0
5 -6 9 -14 9 -8 0 -12 -5 -10 -12z"/>
<path d="M6980 7590 c-9 -6 -10 -10 -3 -10 6 0 15 5 18 10 8 12 4 12 -15 0z"/>
<path d="M6850 7505 c14 -17 13 -18 -3 -12 -11 4 -16 3 -12 -3 7 -12 32 -13
39 -2 2 4 -5 14 -17 22 -21 12 -21 12 -7 -5z"/>
<path d="M7085 7441 c-3 -5 -2 -12 3 -15 5 -3 9 1 9 9 0 17 -3 19 -12 6z"/>
<path d="M7226 7437 c3 -10 9 -15 12 -12 3 3 0 11 -7 18 -10 9 -11 8 -5 -6z"/>
<path d="M6831 7384 c8 -9 8 -14 1 -14 -6 0 -13 4 -17 9 -3 6 -17 6 -35 -1
-36 -12 -40 -27 -5 -20 14 2 25 9 25 14 0 7 4 7 13 1 19 -16 46 -12 39 5 -3
10 -1 13 6 8 7 -4 12 -3 12 2 0 5 -11 10 -25 10 -20 0 -23 -3 -14 -14z"/>
<path d="M7230 7376 c0 -2 7 -7 16 -10 8 -3 12 -2 9 4 -6 10 -25 14 -25 6z"/>
<path d="M7255 7310 c3 -5 8 -10 11 -10 2 0 4 5 4 10 0 6 -5 10 -11 10 -5 0
-7 -4 -4 -10z"/>
<path d="M6600 7292 c0 -5 8 -18 18 -29 9 -10 14 -14 10 -8 -4 6 -3 17 2 23 6
7 7 10 4 7 -4 -3 -13 0 -21 6 -8 7 -13 8 -13 1z"/>
<path d="M7115 7281 c-3 -5 -2 -12 3 -15 5 -3 9 1 9 9 0 17 -3 19 -12 6z"/>
<path d="M7175 7240 c-3 -6 1 -7 9 -4 18 7 21 14 7 14 -6 0 -13 -4 -16 -10z"/>
<path d="M6773 7183 c1 -17 4 -19 14 -11 15 12 18 22 4 14 -5 -4 -11 0 -14 6
-3 7 -4 3 -4 -9z"/>
<path d="M7440 7145 c-11 -13 -10 -14 4 -9 9 3 16 10 16 15 0 13 -6 11 -20 -6z"/>
<path d="M7387 7129 c7 -7 15 -10 18 -7 3 3 -2 9 -12 12 -14 6 -15 5 -6 -5z"/>
<path d="M6805 7121 c-3 -5 -2 -12 3 -15 5 -3 9 1 9 9 0 17 -3 19 -12 6z"/>
<path d="M6844 7106 c1 -17 8 -32 15 -34 10 -3 10 1 3 14 -5 11 -12 26 -15 34
-3 8 -5 2 -3 -14z"/>
<path d="M7435 7100 c3 -5 8 -10 11 -10 2 0 4 5 4 10 0 6 -5 10 -11 10 -5 0
-7 -4 -4 -10z"/>
<path d="M7355 7090 c3 -5 8 -10 11 -10 2 0 4 5 4 10 0 6 -5 10 -11 10 -5 0
-7 -4 -4 -10z"/>
<path d="M7441 7064 c0 -11 3 -14 6 -6 3 7 2 16 -1 19 -3 4 -6 -2 -5 -13z"/>
<path d="M7233 7044 c0 -16 13 -19 21 -5 3 5 0 11 -7 14 -8 3 -14 -1 -14 -9z"/>
<path d="M6987 7033 c-10 -10 -8 -23 4 -23 5 0 8 4 5 9 -4 5 0 12 6 14 7 3 8
6 2 6 -6 1 -14 -2 -17 -6z"/>
<path d="M7016 6948 c3 -4 13 -12 24 -18 13 -7 19 -6 23 5 4 10 1 12 -10 8 -9
-4 -14 -2 -10 3 3 5 -3 10 -13 10 -10 0 -16 -4 -14 -8z"/>
<path d="M7350 6701 c0 -6 4 -13 10 -16 6 -3 7 1 4 9 -7 18 -14 21 -14 7z"/>
<path d="M2735 8115 c-313 -102 -576 -185 -582 -185 -23 0 -12 -14 66 -85 42
-38 105 -96 140 -129 l62 -59 -32 -51 c-175 -278 -278 -555 -336 -901 -25
-155 -25 -542 1 -705 104 -663 469 -1254 985 -1594 179 -118 412 -222 593
-266 100 -24 109 -24 80 -4 -12 8 -27 12 -32 9 -6 -4 -9 -2 -8 3 2 5 -46 42
-106 82 -678 454 -1070 1097 -1128 1852 -32 414 75 898 259 1175 l36 54 26
-23 c14 -13 63 -58 108 -100 45 -43 86 -78 91 -78 5 0 21 44 36 98 16 53 87
293 158 532 71 239 137 463 148 498 10 34 15 62 12 61 -4 0 -263 -83 -577
-184z m557 158 c-6 -2 -10 -9 -7 -14 8 -12 -186 -669 -196 -664 -4 3 -10 -2
-13 -11 -4 -10 -2 -13 6 -8 7 5 9 2 6 -7 -3 -8 -11 -38 -18 -67 -10 -36 -17
-48 -23 -40 -6 9 -7 7 -3 -5 3 -10 -15 -90 -41 -178 -44 -151 -47 -158 -64
-143 -10 9 -16 21 -13 26 3 4 0 7 -8 6 -7 -2 -12 3 -10 10 1 8 -2 11 -7 8 -5
-3 -45 28 -90 69 -78 72 -93 84 -89 68 1 -5 -19 -40 -44 -79 -26 -38 -54 -86
-64 -106 -12 -25 -22 -35 -33 -31 -13 4 -13 3 -2 -5 12 -8 12 -15 1 -41 -7
-17 -16 -28 -21 -25 -5 3 -6 -1 -3 -9 3 -8 -4 -38 -16 -68 -62 -162 -108 -417
-117 -644 -7 -183 7 -348 43 -533 13 -68 21 -129 17 -134 -3 -6 -1 -8 5 -4 13
8 27 -48 16 -65 -4 -7 -3 -9 3 -6 13 8 25 -35 17 -60 -4 -13 -3 -14 3 -5 7 9
13 0 22 -30 7 -24 35 -92 63 -153 27 -60 52 -116 55 -124 5 -10 2 -12 -8 -6
-8 5 -11 5 -6 -1 5 -5 10 -7 13 -4 2 3 27 -35 55 -85 28 -49 82 -134 120 -188
67 -96 78 -114 61 -103 -5 3 -9 -1 -9 -9 0 -10 4 -12 12 -5 14 12 35 -8 39
-37 2 -10 8 -18 13 -18 15 0 134 -131 137 -150 3 -20 47 -66 57 -59 4 2 32
-18 61 -44 77 -71 162 -141 253 -207 44 -31 79 -61 77 -67 -1 -5 2 -7 8 -3 19
11 32 -6 18 -23 -12 -15 -11 -16 4 -4 18 14 43 7 33 -9 -3 -5 0 -6 7 -4 8 3
22 -1 33 -9 20 -15 20 -15 0 -16 -53 0 -400 134 -390 151 3 4 0 11 -6 15 -8 4
-9 3 -5 -4 10 -17 1 -15 -45 8 -24 13 -37 25 -33 32 4 7 3 8 -4 4 -15 -9 -54
12 -47 24 4 6 -1 7 -11 3 -13 -5 -15 -3 -9 7 5 9 4 11 -3 6 -18 -11 -227 137
-217 154 3 4 -3 14 -13 21 -15 13 -16 12 -3 -3 28 -37 -3 -15 -80 54 -63 57
-78 76 -75 95 3 13 0 23 -6 23 -5 0 -8 -7 -4 -15 9 -24 -1 -18 -43 28 -85 93
-95 108 -80 119 11 8 10 9 -3 4 -13 -4 -29 9 -57 47 -34 45 -41 65 -32 95 4
12 -2 17 -19 18 -11 1 -17 -3 -14 -8 3 -4 9 -6 13 -4 3 3 7 -4 7 -15 0 -10 -1
-19 -2 -19 -9 0 -53 84 -48 92 4 7 3 8 -4 4 -13 -8 -46 49 -37 64 3 5 0 12 -6
16 -8 4 -9 3 -5 -4 4 -7 5 -12 2 -12 -11 0 -46 81 -40 92 4 7 3 8 -4 4 -7 -4
-12 -3 -12 3 0 5 3 11 8 14 4 2 1 2 -6 1 -15 -4 -32 35 -24 55 3 8 1 12 -5 8
-17 -11 -119 234 -108 261 2 7 1 11 -4 8 -22 -14 -105 357 -118 523 -5 71 -4
83 8 77 8 -4 6 -1 -3 7 -15 12 -18 32 -18 128 0 198 22 391 67 582 17 74 29
107 37 104 7 -3 13 1 13 9 0 7 -4 11 -9 8 -4 -3 -8 2 -8 11 0 10 5 13 12 9 7
-4 8 -3 4 5 -10 16 25 112 37 104 6 -3 7 -1 3 6 -9 14 23 103 35 96 4 -3 11 0
15 6 4 8 3 9 -4 5 -17 -10 -15 7 5 48 9 19 20 33 25 30 4 -3 5 3 1 12 -5 13
-3 15 7 9 8 -5 11 -4 6 3 -9 14 35 103 47 95 6 -3 7 -1 3 5 -8 13 83 164 95
156 5 -3 5 4 1 15 -4 11 -54 64 -112 117 -58 54 -104 102 -102 106 1 5 -1 7
-6 4 -5 -3 -19 5 -31 18 l-22 24 26 6 c14 4 31 4 37 0 6 -4 8 -3 5 3 -8 13 39
27 55 17 6 -4 8 -3 5 3 -7 11 371 136 415 137 14 1 24 4 22 7 -5 9 105 41 118
33 6 -4 8 -3 5 3 -7 10 129 56 143 48 5 -3 10 -1 12 4 3 8 274 101 293 100 6
0 4 -3 -3 -6z m-162 -3708 c13 -14 21 -25 18 -25 -2 0 -15 11 -28 25 -13 14
-21 25 -18 25 2 0 15 -11 28 -25z"/>
<path d="M3206 8087 c3 -10 9 -15 12 -12 3 3 0 11 -7 18 -10 9 -11 8 -5 -6z"/>
<path d="M2637 8049 c7 -7 15 -10 18 -7 3 3 -2 9 -12 12 -14 6 -15 5 -6 -5z"/>
<path d="M2527 8023 c-9 -2 -15 -9 -12 -14 9 -14 22 -11 29 6 3 8 4 14 3 14
-1 -1 -10 -3 -20 -6z"/>
<path d="M2915 7990 c-3 -5 -1 -10 4 -10 6 0 11 5 11 10 0 6 -2 10 -4 10 -3 0
-8 -4 -11 -10z"/>
<path d="M2805 7960 c-3 -5 -1 -10 4 -10 6 0 11 5 11 10 0 6 -2 10 -4 10 -3 0
-8 -4 -11 -10z"/>
<path d="M2840 7966 c0 -2 8 -10 18 -17 15 -13 16 -12 3 4 -13 16 -21 21 -21
13z"/>
<path d="M2462 7936 c7 -8 15 -12 17 -11 5 6 -10 25 -20 25 -5 0 -4 -6 3 -14z"/>
<path d="M2501 7924 c0 -11 3 -14 6 -6 3 7 2 16 -1 19 -3 4 -6 -2 -5 -13z"/>
<path d="M2400 7915 c-7 -9 -11 -17 -9 -20 3 -2 10 5 17 15 14 24 10 26 -8 5z"/>
<path d="M2860 7920 c0 -6 7 -10 15 -10 8 0 15 2 15 4 0 2 -7 6 -15 10 -8 3
-15 1 -15 -4z"/>
<path d="M3026 7915 c-9 -26 -7 -32 5 -12 6 10 9 21 6 23 -2 3 -7 -2 -11 -11z"/>
<path d="M2204 7898 c-4 -7 -4 -10 1 -6 4 4 15 2 24 -5 14 -11 14 -10 2 6 -16
20 -18 21 -27 5z"/>
<path d="M2517 7849 c7 -7 15 -10 18 -7 3 3 -2 9 -12 12 -14 6 -15 5 -6 -5z"/>
<path d="M3016 7851 c-4 -5 -2 -12 3 -15 5 -4 12 -2 15 3 4 5 2 12 -3 15 -5 4
-12 2 -15 -3z"/>
<path d="M2960 7845 c0 -7 30 -13 34 -7 3 4 -4 9 -15 9 -10 1 -19 0 -19 -2z"/>
<path d="M2278 7833 c6 -3 10 -8 7 -13 -2 -4 3 -15 13 -23 16 -15 18 -15 19 3
1 14 -3 17 -15 13 -14 -6 -15 -4 -5 8 10 12 8 15 -10 16 -12 0 -16 -1 -9 -4z"/>
<path d="M3129 7830 c12 -6 12 -12 3 -23 -9 -11 -8 -14 3 -14 8 0 13 2 10 5
-2 3 0 12 5 21 7 13 4 17 -13 18 -16 2 -18 0 -8 -7z"/>
<path d="M2461 7784 c0 -11 3 -14 6 -6 3 7 2 16 -1 19 -3 4 -6 -2 -5 -13z"/>
<path d="M3115 7770 c-3 -6 1 -7 9 -4 18 7 21 14 7 14 -6 0 -13 -4 -16 -10z"/>
<path d="M2364 7738 c1 -7 11 -15 21 -16 11 -3 15 0 10 7 -3 6 -10 9 -15 6 -4
-3 -11 0 -13 5 -3 6 -4 5 -3 -2z"/>
<path d="M2835 7740 c-3 -6 1 -7 9 -4 18 7 21 14 7 14 -6 0 -13 -4 -16 -10z"/>
<path d="M2715 7731 c-3 -5 -2 -12 3 -15 5 -3 9 1 9 9 0 17 -3 19 -12 6z"/>
<path d="M2543 7699 c-2 -23 3 -25 10 -4 4 8 3 16 -1 19 -4 3 -9 -4 -9 -15z"/>
<path d="M2505 7690 c3 -5 8 -10 11 -10 2 0 4 5 4 10 0 6 -5 10 -11 10 -5 0
-7 -4 -4 -10z"/>
<path d="M2856 7692 c-2 -4 7 -8 20 -8 13 -1 24 1 24 5 0 9 -38 12 -44 3z"/>
<path d="M2647 7676 c-4 -10 -1 -13 8 -9 8 3 12 9 9 14 -7 12 -11 11 -17 -5z"/>
<path d="M2797 7659 c7 -7 15 -10 18 -7 3 3 -2 9 -12 12 -14 6 -15 5 -6 -5z"/>
<path d="M2521 7644 c0 -11 3 -14 6 -6 3 7 2 16 -1 19 -3 4 -6 -2 -5 -13z"/>
<path d="M2830 7651 c0 -6 4 -13 10 -16 6 -3 7 1 4 9 -7 18 -14 21 -14 7z"/>
<path d="M2980 7640 c0 -5 5 -10 11 -10 5 0 7 5 4 10 -3 6 -8 10 -11 10 -2 0
-4 -4 -4 -10z"/>
<path d="M2485 7630 c-3 -6 1 -7 9 -4 18 7 21 14 7 14 -6 0 -13 -4 -16 -10z"/>
<path d="M2787 7629 c7 -7 15 -10 18 -7 3 3 -2 9 -12 12 -14 6 -15 5 -6 -5z"/>
<path d="M2719 7613 c-13 -16 -12 -17 4 -4 9 7 17 15 17 17 0 8 -8 3 -21 -13z"/>
<path d="M3037 7599 c7 -7 15 -10 18 -7 3 3 -2 9 -12 12 -14 6 -15 5 -6 -5z"/>
<path d="M2805 7590 c-4 -6 -11 -7 -17 -4 -7 4 -8 2 -4 -5 6 -9 11 -9 22 0 14
11 18 19 10 19 -3 0 -8 -5 -11 -10z"/>
<path d="M2643 7563 c0 -9 4 -10 14 -2 7 6 13 12 13 14 0 1 -6 2 -13 2 -8 0
-14 -6 -14 -14z"/>
<path d="M2870 7576 c0 -2 7 -6 15 -10 8 -3 15 -1 15 4 0 6 -7 10 -15 10 -8 0
-15 -2 -15 -4z"/>
<path d="M2380 7555 c-7 -9 -8 -15 -2 -15 5 0 12 7 16 15 3 8 4 15 2 15 -2 0
-9 -7 -16 -15z"/>
<path d="M2819 7523 c-13 -16 -12 -17 4 -4 16 13 21 21 13 21 -2 0 -10 -8 -17
-17z"/>
<path d="M2763 7358 c-26 -12 -32 -33 -7 -24 9 3 19 6 23 6 4 0 8 7 8 15 0 8
-1 15 -1 14 -1 0 -11 -5 -23 -11z"/>
<path d="M2991 7353 c7 -12 15 -20 18 -17 3 2 -3 12 -13 22 -17 16 -18 16 -5
-5z"/>
<path d="M2640 7276 c0 -2 8 -10 18 -17 15 -13 16 -12 3 4 -13 16 -21 21 -21
13z"/>
<path d="M2960 7261 c0 -11 4 -22 9 -25 4 -3 6 6 3 19 -5 30 -12 33 -12 6z"/>
<path d="M2862 7251 c7 -9 13 -18 15 -20 1 -2 1 5 0 16 0 11 -7 20 -14 20 -10
0 -10 -4 -1 -16z"/>
<path d="M2436 7173 c-6 -14 -5 -15 5 -6 7 7 10 15 7 18 -3 3 -9 -2 -12 -12z"/>
<path d="M2588 7163 c7 -3 16 -2 19 1 4 3 -2 6 -13 5 -11 0 -14 -3 -6 -6z"/>
<path d="M2147 6979 c4 -13 8 -18 11 -10 2 7 -1 18 -6 23 -8 8 -9 4 -5 -13z"/>
<path d="M2136 6895 c4 -8 11 -15 16 -15 6 0 5 6 -2 15 -7 8 -14 15 -16 15 -2
0 -1 -7 2 -15z"/>
<path d="M2451 6704 c0 -11 3 -14 6 -6 3 7 2 16 -1 19 -3 4 -6 -2 -5 -13z"/>
<path d="M2071 6618 c0 -16 2 -18 6 -8 3 8 11 18 17 22 7 5 4 8 -6 8 -12 0
-18 -7 -17 -22z"/>
<path d="M2061 6574 c0 -11 3 -14 6 -6 3 7 2 16 -1 19 -3 4 -6 -2 -5 -13z"/>
<path d="M2065 6510 c-3 -5 -3 -14 0 -20 3 -5 1 -10 -4 -10 -6 0 -11 -8 -11
-17 0 -15 2 -15 9 -4 7 11 10 10 14 -5 2 -10 4 0 3 24 -1 45 -1 47 -11 32z"/>
<path d="M2051 6384 c0 -11 3 -14 6 -6 3 7 2 16 -1 19 -3 4 -6 -2 -5 -13z"/>
<path d="M2240 6389 c0 -5 5 -7 10 -4 6 3 10 8 10 11 0 2 -4 4 -10 4 -5 0 -10
-5 -10 -11z"/>
<path d="M2051 6301 c-1 -20 1 -21 14 -11 16 14 21 25 6 16 -5 -4 -12 0 -14 6
-3 7 -6 2 -6 -11z"/>
<path d="M2396 6303 c-6 -14 -5 -15 5 -6 7 7 10 15 7 18 -3 3 -9 -2 -12 -12z"/>
<path d="M2062 6268 c-16 -16 -15 -33 3 -48 9 -8 15 -8 15 -2 0 6 -5 12 -11
14 -9 3 -9 10 0 26 13 25 11 28 -7 10z"/>
<path d="M2402 6160 c0 -19 2 -27 5 -17 2 9 2 25 0 35 -3 9 -5 1 -5 -18z"/>
<path d="M2061 6123 c2 -24 2 -25 6 -5 3 13 9 19 15 16 7 -4 8 -2 4 4 -13 21
-26 13 -25 -15z"/>
<path d="M2320 6085 c-7 -9 -11 -17 -9 -20 3 -2 10 5 17 15 14 24 10 26 -8 5z"/>
<path d="M2072 6040 c0 -14 2 -19 5 -12 2 6 2 18 0 25 -3 6 -5 1 -5 -13z"/>
<path d="M2109 5873 c-13 -16 -12 -17 4 -4 9 7 17 15 17 17 0 8 -8 3 -21 -13z"/>
<path d="M2405 5880 c-3 -5 -2 -17 3 -26 8 -14 10 -12 10 9 0 29 -3 33 -13 17z"/>
<path d="M2110 5808 c0 -4 4 -8 9 -8 6 0 12 4 15 8 3 5 -1 9 -9 9 -8 0 -15 -4
-15 -9z"/>
<path d="M2127 5748 c6 -29 34 -29 32 1 0 11 -2 12 -6 3 -4 -10 -8 -9 -18 5
-12 16 -13 15 -8 -9z"/>
<path d="M2144 5694 c3 -9 6 -23 6 -32 0 -14 2 -14 9 -3 10 16 3 51 -11 51 -6
0 -7 -7 -4 -16z"/>
<path d="M2375 5620 c-3 -6 1 -7 9 -4 18 7 21 14 7 14 -6 0 -13 -4 -16 -10z"/>
<path d="M2207 5515 c3 -8 9 -12 14 -9 12 7 11 11 -5 17 -10 4 -13 1 -9 -8z"/>
<path d="M2276 5352 c-3 -5 1 -9 9 -9 8 0 12 4 9 9 -3 4 -7 8 -9 8 -2 0 -6 -4
-9 -8z"/>
<path d="M2538 4973 c7 -3 16 -2 19 1 4 3 -2 6 -13 5 -11 0 -14 -3 -6 -6z"/>
<path d="M2527 4944 c-11 -11 -8 -26 4 -19 6 4 9 0 7 -10 -2 -10 3 -20 10 -22
6 -3 12 3 12 12 0 10 5 13 12 9 7 -5 8 -3 4 5 -5 7 -10 10 -14 7 -3 -3 -10 1
-16 10 -6 8 -15 12 -19 8z"/>
<path d="M2635 4780 c10 -11 20 -20 23 -20 3 0 -3 9 -13 20 -10 11 -20 20 -23
20 -3 0 3 -9 13 -20z"/>
<path d="M2785 4639 c-6 -9 20 -30 28 -22 12 12 7 30 -8 30 -9 0 -18 -4 -20
-8z"/>
<path d="M2840 4600 c-9 -6 -10 -10 -3 -10 6 0 15 5 18 10 8 12 4 12 -15 0z"/>
<path d="M2923 4535 c-3 -9 -3 -18 -1 -21 3 -3 8 4 11 16 6 23 -1 27 -10 5z"/>
<path d="M2940 4510 c0 -5 5 -10 10 -10 6 0 10 5 10 10 0 6 -4 10 -10 10 -5 0
-10 -4 -10 -10z"/>
<path d="M3170 4490 c0 -5 7 -10 15 -10 17 0 37 -34 27 -45 -4 -5 -1 -5 6 -1
9 5 9 12 2 26 -13 23 -50 46 -50 30z"/>
<path d="M2980 4469 c0 -5 5 -7 10 -4 6 3 10 8 10 11 0 2 -4 4 -10 4 -5 0 -10
-5 -10 -11z"/>
<path d="M3009 4464 c-9 -12 -10 -15 -1 -10 7 4 12 2 12 -5 0 -10 3 -10 12 -1
8 8 9 15 2 22 -8 8 -15 6 -25 -6z"/>
<path d="M3400 4300 c-9 -6 -10 -10 -3 -10 6 0 15 5 18 10 8 12 4 12 -15 0z"/>
<path d="M3430 4296 c0 -2 8 -10 18 -17 15 -13 16 -12 3 4 -13 16 -21 21 -21
13z"/>
<path d="M3470 4256 c0 -9 5 -16 10 -16 6 0 10 4 10 9 0 6 -4 13 -10 16 -5 3
-10 -1 -10 -9z"/>
<path d="M3410 4236 c0 -2 9 -6 20 -9 11 -3 20 -1 20 4 0 5 -9 9 -20 9 -11 0
-20 -2 -20 -4z"/>
<path d="M3500 4210 c-8 -5 -10 -10 -5 -10 6 0 17 5 25 10 8 5 11 10 5 10 -5
0 -17 -5 -25 -10z"/>
<path d="M4904 7647 c-253 -338 -390 -582 -472 -837 -149 -466 -66 -756 346
-1200 l69 -75 7 220 c16 510 38 823 81 1119 26 177 32 266 9 136 -44 -255 -78
-613 -90 -952 -4 -103 -11 -185 -15 -182 -4 2 -11 -1 -15 -7 -4 -8 -3 -9 4 -5
9 5 12 -34 12 -151 0 -100 -4 -153 -9 -143 -6 8 -7 19 -4 25 4 5 3 7 -2 3 -13
-12 -33 11 -28 31 2 9 -3 23 -11 30 -11 9 -16 10 -16 2 0 -6 4 -11 8 -11 5 0
9 -7 9 -15 0 -10 -14 -3 -39 22 -26 25 -36 43 -32 55 7 23 -19 51 -34 36 -10
-10 -29 12 -31 37 -1 6 -5 11 -11 11 -5 1 -12 2 -15 3 -3 0 -1 10 5 20 9 17 7
19 -10 16 -15 -3 -30 10 -61 56 -22 33 -37 64 -34 69 4 6 1 9 -7 8 -7 -2 -12
5 -12 14 1 10 -2 16 -6 13 -12 -7 -78 143 -99 225 -10 41 -20 104 -21 140 -4
102 -1 192 8 187 4 -3 7 18 8 47 1 66 42 218 57 209 6 -3 7 -1 3 5 -4 6 -3 23
0 39 6 24 8 25 14 8 5 -13 7 -6 6 21 0 33 17 77 90 220 49 99 95 178 102 177
7 -2 9 4 5 15 -5 14 -3 15 8 5 7 -7 18 -13 24 -13 5 0 3 5 -5 10 -13 9 -13 10
0 10 13 0 13 2 1 9 -22 14 41 109 71 107 12 0 23 6 25 14 3 9 1 11 -4 5 -9
-11 -33 -18 -33 -10 0 14 84 124 91 119 5 -2 6 -11 2 -19 -4 -11 -1 -13 11 -9
9 3 13 11 9 18 -14 21 -14 48 -1 40 7 -4 10 -4 6 1 -11 11 11 47 24 39 6 -4 8
-3 5 3 -4 6 -1 18 6 28 13 16 14 16 30 0 18 -18 23 -9 8 14 -11 18 5 55 20 46
5 -4 9 -3 8 2 -3 20 2 34 11 28 6 -4 10 -3 9 2 -1 4 1 16 6 26 6 15 10 15 24
5 14 -12 15 -11 2 5 -7 9 -9 17 -3 17 12 0 45 -49 45 -67 0 -7 3 -11 5 -8 11
11 51 -63 46 -86 -4 -22 -3 -22 5 -4 9 18 12 16 15 -10 1 -5 5 -10 9 -10 14 0
58 -76 51 -88 -4 -6 -3 -9 1 -4 5 4 33 -30 62 -75 53 -83 63 -105 41 -92 -7 4
-8 3 -4 -5 4 -6 11 -9 15 -7 12 8 53 -72 45 -86 -4 -7 -4 -10 1 -6 4 4 14 0
21 -10 17 -21 18 -36 2 -26 -7 4 -8 3 -4 -5 4 -6 11 -9 15 -6 10 6 46 -72 46
-100 0 -12 6 -19 14 -17 9 2 11 -3 7 -13 -4 -11 -2 -14 6 -9 8 5 9 2 5 -10 -4
-9 -3 -15 2 -12 10 7 71 -148 105 -267 40 -138 49 -212 44 -357 -4 -111 -10
-150 -32 -218 -15 -45 -30 -81 -34 -78 -4 2 -8 -6 -8 -19 -2 -29 -82 -167 -94
-160 -5 3 -12 0 -16 -6 -4 -8 -3 -9 4 -5 7 4 12 4 12 -1 0 -10 -67 -94 -74
-94 -25 3 -30 0 -18 -7 9 -6 4 -20 -22 -53 -20 -24 -41 -44 -48 -44 -7 -1 -12
-7 -10 -14 4 -20 -28 -50 -46 -44 -12 3 -13 2 -5 -4 16 -11 -43 -87 -59 -77
-7 4 -8 2 -4 -5 4 -6 2 -19 -5 -27 -12 -14 -14 -14 -25 0 -10 15 -12 13 -16
-9 -4 -20 -3 -23 8 -14 8 6 14 8 14 3 -1 -13 -26 -44 -32 -39 -8 8 -13 -308
-10 -614 3 -243 1 -292 -10 -285 -7 5 -23 7 -35 5 -16 -1 -23 3 -23 14 0 12
-4 14 -19 5 -11 -5 -22 -6 -25 -2 -7 12 10 35 22 28 6 -3 13 -2 17 4 4 6 -5
10 -19 10 l-26 0 0 270 c0 270 1 276 32 271 4 0 5 6 1 15 -5 13 -7 13 -14 2
-5 -7 -9 331 -10 752 -1 421 -4 846 -8 945 -3 99 -6 -387 -6 -1080 l0 -1260
65 0 65 0 5 445 c5 406 7 448 23 478 10 19 66 90 124 159 212 252 309 410 354
578 32 119 30 303 -3 450 -63 271 -196 542 -480 973 -55 83 -103 152 -107 152
-3 0 -61 -73 -127 -163z m-194 -1929 c0 -6 -6 -5 -15 2 -8 7 -15 14 -15 16 0
2 7 1 15 -2 8 -4 15 -11 15 -16z m363 -1135 c-13 -2 -35 -2 -50 0 -16 2 -5 4
22 4 28 0 40 -2 28 -4z"/>
<path d="M4780 7389 c0 -5 5 -7 10 -4 6 3 10 8 10 11 0 2 -4 4 -10 4 -5 0 -10
-5 -10 -11z"/>
<path d="M4799 7173 c-13 -16 -12 -17 4 -4 9 7 17 15 17 17 0 8 -8 3 -21 -13z"/>
<path d="M5192 7174 c10 -10 20 -16 22 -13 3 3 -5 11 -17 18 -21 13 -21 12 -5
-5z"/>
<path d="M4957 7109 c7 -7 15 -10 18 -7 3 3 -2 9 -12 12 -14 6 -15 5 -6 -5z"/>
<path d="M4545 7020 c-3 -5 -1 -10 4 -10 6 0 11 5 11 10 0 6 -2 10 -4 10 -3 0
-8 -4 -11 -10z"/>
<path d="M5000 6991 c0 -24 16 -36 26 -20 5 8 3 9 -6 4 -10 -6 -12 -4 -7 8 3
9 2 19 -3 22 -6 4 -10 -3 -10 -14z"/>
<path d="M5133 6975 c0 -8 4 -12 9 -9 5 3 6 10 3 15 -9 13 -12 11 -12 -6z"/>
<path d="M5298 6963 c7 -3 16 -2 19 1 4 3 -2 6 -13 5 -11 0 -14 -3 -6 -6z"/>
<path d="M4893 6945 c0 -8 4 -12 9 -9 4 3 8 -3 8 -12 0 -10 3 -15 6 -11 8 7
-5 47 -15 47 -4 0 -8 -7 -8 -15z"/>
<path d="M4769 6923 c-13 -16 -12 -17 4 -4 9 7 17 15 17 17 0 8 -8 3 -21 -13z"/>
<path d="M5006 6923 c-6 -14 -5 -15 5 -6 7 7 10 15 7 18 -3 3 -9 -2 -12 -12z"/>
<path d="M5005 6890 c-3 -6 1 -7 9 -4 18 7 21 14 7 14 -6 0 -13 -4 -16 -10z"/>
<path d="M4885 6880 c-3 -5 -1 -10 4 -10 6 0 11 5 11 10 0 6 -2 10 -4 10 -3 0
-8 -4 -11 -10z"/>
<path d="M5010 6852 c0 -12 19 -26 26 -19 2 2 -2 10 -11 17 -9 8 -15 8 -15 2z"/>
<path d="M5541 6845 c1 -19 18 -51 18 -35 0 8 -4 22 -9 30 -5 8 -9 11 -9 5z"/>
<path d="M4765 6820 c-3 -6 1 -7 9 -4 18 7 21 14 7 14 -6 0 -13 -4 -16 -10z"/>
<path d="M5373 6785 c0 -8 4 -12 9 -9 5 3 6 10 3 15 -9 13 -12 11 -12 -6z"/>
<path d="M5173 6753 c0 -9 4 -10 14 -2 7 6 13 12 13 14 0 1 -6 2 -13 2 -8 0
-14 -6 -14 -14z"/>
<path d="M5320 6565 c-10 -12 -10 -15 2 -15 8 0 15 7 15 15 0 8 -1 15 -2 15
-2 0 -8 -7 -15 -15z"/>
<path d="M5611 6524 c0 -11 3 -14 6 -6 3 7 2 16 -1 19 -3 4 -6 -2 -5 -13z"/>
<path d="M5105 6510 c-3 -6 1 -7 9 -4 18 7 21 14 7 14 -6 0 -13 -4 -16 -10z"/>
<path d="M5010 6499 c0 -5 5 -7 10 -4 6 3 10 8 10 11 0 2 -4 4 -10 4 -5 0 -10
-5 -10 -11z"/>
<path d="M5210 6461 c0 -6 4 -13 10 -16 6 -3 7 1 4 9 -7 18 -14 21 -14 7z"/>
<path d="M5396 6425 c-9 -26 -7 -32 5 -12 6 10 9 21 6 23 -2 3 -7 -2 -11 -11z"/>
<path d="M5010 6398 c0 -19 2 -20 10 -8 13 19 13 30 0 30 -5 0 -10 -10 -10
-22z"/>
<path d="M4393 6340 c0 -25 2 -35 4 -22 2 12 2 32 0 45 -2 12 -4 2 -4 -23z"/>
<path d="M5607 6359 c4 -13 8 -18 11 -10 2 7 -1 18 -6 23 -8 8 -9 4 -5 -13z"/>
<path d="M7566 6315 c-45 -354 -105 -570 -230 -830 -340 -708 -984 -1204
-1771 -1364 -163 -33 -370 -59 -381 -48 -4 4 -1 68 7 142 13 121 13 135 -1
131 -219 -64 -1098 -330 -1107 -335 -8 -4 59 -55 170 -129 100 -68 318 -215
484 -327 l301 -205 22 98 c12 53 27 120 33 147 l12 50 65 3 c178 7 462 54 648
108 460 133 943 453 1258 834 325 395 498 800 536 1258 11 140 1 326 -26 462
l-13 65 -7 -60z m32 -215 c5 -74 5 -180 1 -235 -4 -55 -8 -113 -8 -130 -1 -17
-5 -25 -9 -18 -4 6 -7 -12 -8 -40 0 -62 -53 -279 -65 -271 -5 3 -6 -2 -3 -10
9 -24 -92 -280 -107 -270 -5 3 -6 -3 -2 -12 5 -13 3 -15 -7 -9 -8 5 -11 4 -6
-3 9 -15 -62 -155 -74 -147 -6 4 -7 -1 -3 -11 4 -11 3 -15 -5 -10 -6 3 -14 1
-18 -5 -4 -8 -3 -9 4 -5 18 11 15 0 -19 -54 -17 -28 -35 -47 -41 -43 -7 3 -8
1 -4 -5 8 -13 -51 -98 -66 -94 -5 1 -7 -1 -4 -6 7 -12 -42 -78 -55 -74 -6 1
-8 -1 -5 -6 2 -4 -6 -21 -20 -38 -14 -16 -22 -23 -18 -15 5 9 3 12 -5 7 -6 -4
-9 -11 -6 -16 8 -13 -85 -111 -98 -103 -7 3 -9 2 -4 -2 10 -11 -33 -56 -46
-48 -6 3 -7 1 -4 -4 7 -10 -8 -28 -28 -35 -5 -1 -9 -6 -8 -10 4 -12 -88 -89
-99 -82 -6 4 -8 3 -4 -4 8 -13 -43 -54 -57 -45 -5 3 -7 1 -4 -5 11 -16 -245
-198 -263 -187 -6 4 -9 1 -8 -7 2 -7 -5 -12 -14 -12 -10 1 -15 -3 -11 -9 4 -6
0 -8 -10 -4 -10 4 -16 2 -14 -4 3 -15 -264 -151 -286 -145 -9 2 -15 0 -12 -4
6 -10 -116 -58 -253 -99 -194 -57 -414 -97 -616 -109 -126 -8 -108 13 -151
-174 l-26 -117 -114 76 c-63 42 -112 80 -108 86 3 6 1 7 -5 3 -7 -4 -70 32
-147 85 -118 80 -134 94 -123 108 11 14 11 14 -4 3 -14 -11 -40 3 -195 108
-98 67 -177 126 -175 132 1 5 -2 7 -7 3 -6 -3 -22 2 -36 11 -26 17 -20 19 452
161 263 79 486 142 496 139 9 -2 15 -1 12 4 -4 7 105 43 112 36 2 -2 -1 -48
-7 -102 -22 -207 -23 -184 8 -174 15 5 63 11 107 15 44 3 139 17 212 31 72 13
138 22 145 21 7 -2 9 -2 3 1 -8 4 145 51 168 52 5 0 5 -6 1 -12 -4 -7 -4 -10
0 -6 4 3 8 10 8 15 1 11 130 54 146 48 7 -3 11 -1 8 3 -3 5 32 23 77 41 45 19
124 55 175 82 51 26 98 47 105 45 7 -1 8 -1 4 2 -5 2 1 11 12 19 12 8 27 11
34 7 6 -4 9 -3 4 1 -9 11 94 76 107 68 5 -3 6 -1 3 4 -9 15 38 44 60 37 13 -4
14 -3 5 4 -10 7 -2 18 35 44 26 19 72 56 102 81 30 25 59 44 65 40 6 -3 8 -3
4 2 -11 11 12 36 26 28 6 -3 8 -3 4 2 -11 11 12 36 26 28 6 -3 8 -3 4 2 -9 9
162 191 175 187 5 -1 6 1 3 6 -2 4 18 37 45 72 27 35 66 88 86 117 20 29 40
50 46 46 6 -3 7 -1 3 5 -9 15 67 135 79 125 4 -5 5 -3 1 4 -9 17 32 95 46 87
6 -4 8 -3 5 4 -4 5 15 59 42 119 95 211 158 424 189 640 20 146 28 134 40 -67z"/>
<path d="M7572 6185 c0 -16 3 -39 8 -50 l9 -20 -1 20 c0 11 -4 34 -8 50 l-8
30 0 -30z"/>
<path d="M7419 5613 c-13 -16 -12 -17 4 -4 16 13 21 21 13 21 -2 0 -10 -8 -17
-17z"/>
<path d="M7260 5290 c-9 -6 -10 -10 -3 -10 6 0 15 5 18 10 8 12 4 12 -15 0z"/>
<path d="M7169 5152 c-13 -15 -12 -16 3 -4 13 10 17 10 21 0 4 -9 6 -9 6 -1 2
20 -16 24 -30 5z"/>
<path d="M7102 5060 c-7 -11 -8 -20 -3 -20 9 0 24 30 18 36 -1 2 -8 -6 -15
-16z"/>
<path d="M6991 4814 c0 -11 3 -14 6 -6 3 7 2 16 -1 19 -3 4 -6 -2 -5 -13z"/>
<path d="M6865 4770 c-3 -5 -1 -10 4 -10 6 0 11 5 11 10 0 6 -2 10 -4 10 -3 0
-8 -4 -11 -10z"/>
<path d="M7110 4769 c0 -5 5 -7 10 -4 6 3 10 8 10 11 0 2 -4 4 -10 4 -5 0 -10
-5 -10 -11z"/>
<path d="M7123 4705 c-3 -9 -3 -18 -1 -21 3 -3 8 4 11 16 6 23 -1 27 -10 5z"/>
<path d="M6717 4645 c-16 -11 -15 -12 8 -12 28 0 42 12 22 20 -7 3 -21 -1 -30
-8z"/>
<path d="M7040 4630 c20 -13 33 -13 25 0 -3 6 -14 10 -23 10 -15 0 -15 -2 -2
-10z"/>
<path d="M6677 4589 c7 -7 15 -10 18 -7 3 3 -2 9 -12 12 -14 6 -15 5 -6 -5z"/>
<path d="M6626 4575 c-17 -13 -14 -41 3 -30 7 4 23 46 18 45 -1 0 -10 -7 -21
-15z"/>
<path d="M6523 4496 c-3 -6 -3 -8 2 -4 4 4 13 3 20 -2 8 -7 12 -5 12 3 0 16
-25 18 -34 3z"/>
<path d="M6795 4500 c3 -5 8 -10 11 -10 2 0 4 5 4 10 0 6 -5 10 -11 10 -5 0
-7 -4 -4 -10z"/>
<path d="M6436 4435 c-3 -8 -1 -15 4 -15 6 0 10 7 10 15 0 8 -2 15 -4 15 -2 0
-6 -7 -10 -15z"/>
<path d="M6295 4350 c3 -5 8 -10 11 -10 2 0 4 5 4 10 0 6 -5 10 -11 10 -5 0
-7 -4 -4 -10z"/>
<path d="M6241 4331 c-8 -6 -9 -11 -3 -15 6 -3 14 -1 17 5 9 14 2 20 -14 10z"/>
<path d="M6726 4322 c-3 -5 1 -9 9 -9 8 0 12 4 9 9 -3 4 -7 8 -9 8 -2 0 -6 -4
-9 -8z"/>
<path d="M6670 4300 c0 -5 5 -10 11 -10 5 0 7 5 4 10 -3 6 -8 10 -11 10 -2 0
-4 -4 -4 -10z"/>
<path d="M4955 4249 c-3 -4 2 -6 10 -5 21 3 28 13 10 13 -9 0 -18 -4 -20 -8z"/>
<path d="M5900 4181 c0 -8 -6 -11 -17 -6 -14 5 -15 3 -7 -5 18 -18 46 -9 34
10 -7 12 -10 12 -10 1z"/>
<path d="M5143 4165 c0 -8 4 -12 9 -9 4 3 8 9 8 15 0 5 -4 9 -8 9 -5 0 -9 -7
-9 -15z"/>
<path d="M4595 4140 c-3 -6 1 -7 9 -4 18 7 21 14 7 14 -6 0 -13 -4 -16 -10z"/>
<path d="M6496 4133 c-6 -14 -5 -15 5 -6 7 7 10 15 7 18 -3 3 -9 -2 -12 -12z"/>
<path d="M4450 4100 c-8 -5 -12 -12 -8 -15 10 -10 49 5 43 16 -8 11 -16 11
-35 -1z"/>
<path d="M4830 4106 c0 -2 8 -10 18 -17 15 -13 16 -12 3 4 -13 16 -21 21 -21
13z"/>
<path d="M5550 4090 c-9 -6 -10 -10 -3 -10 6 0 15 5 18 10 8 12 4 12 -15 0z"/>
<path d="M5140 4030 c0 -5 5 -10 11 -10 5 0 7 5 4 10 -3 6 -8 10 -11 10 -2 0
-4 -4 -4 -10z"/>
<path d="M4147 3999 c7 -7 15 -10 18 -7 3 3 -2 9 -12 12 -14 6 -15 5 -6 -5z"/>
<path d="M4355 3990 c-3 -6 1 -7 9 -4 18 7 21 14 7 14 -6 0 -13 -4 -16 -10z"/>
<path d="M6163 3925 c0 -8 4 -12 9 -9 5 3 6 10 3 15 -9 13 -12 11 -12 -6z"/>
<path d="M5685 3920 c-3 -5 -1 -10 4 -10 6 0 11 5 11 10 0 6 -2 10 -4 10 -3 0
-8 -4 -11 -10z"/>
<path d="M4940 3910 c0 -5 5 -10 11 -10 5 0 7 5 4 10 -3 6 -8 10 -11 10 -2 0
-4 -4 -4 -10z"/>
<path d="M4305 3900 c-3 -5 -1 -10 4 -10 6 0 11 5 11 10 0 6 -2 10 -4 10 -3 0
-8 -4 -11 -10z"/>
<path d="M6120 3900 c-8 -5 -10 -10 -5 -10 6 0 17 5 25 10 8 5 11 10 5 10 -5
0 -17 -5 -25 -10z"/>
<path d="M4705 3890 c-3 -6 1 -7 9 -4 18 7 21 14 7 14 -6 0 -13 -4 -16 -10z"/>
<path d="M5080 3889 c0 -5 5 -7 10 -4 6 3 10 8 10 11 0 2 -4 4 -10 4 -5 0 -10
-5 -10 -11z"/>
<path d="M5336 3878 c3 -5 10 -6 15 -3 13 9 11 12 -6 12 -8 0 -12 -4 -9 -9z"/>
<path d="M5240 3865 c0 -8 4 -15 10 -15 5 0 7 7 4 15 -4 8 -8 15 -10 15 -2 0
-4 -7 -4 -15z"/>
<path d="M5441 3844 c0 -11 3 -14 6 -6 3 7 2 16 -1 19 -3 4 -6 -2 -5 -13z"/>
<path d="M4360 3835 c7 -9 15 -13 18 -11 2 3 12 -3 21 -12 10 -12 13 -12 6 -2
-12 20 -36 40 -48 40 -5 0 -4 -7 3 -15z"/>
<path d="M5596 3842 c-3 -5 1 -9 9 -9 8 0 12 4 9 9 -3 4 -7 8 -9 8 -2 0 -6 -4
-9 -8z"/>
<path d="M5150 3836 c0 -2 7 -7 16 -10 8 -3 12 -2 9 4 -6 10 -25 14 -25 6z"/>
<path d="M5925 3830 c3 -5 8 -10 11 -10 2 0 4 5 4 10 0 6 -5 10 -11 10 -5 0
-7 -4 -4 -10z"/>
<path d="M5840 3800 c0 -5 5 -10 11 -10 5 0 7 5 4 10 -3 6 -8 10 -11 10 -2 0
-4 -4 -4 -10z"/>
<path d="M5620 3755 c0 -14 5 -25 11 -25 6 0 8 9 4 23 -5 19 -4 20 5 5 6 -10
15 -18 20 -18 6 0 2 9 -7 20 -23 27 -33 25 -33 -5z"/>
<path d="M4475 3760 c-4 -6 1 -7 11 -3 13 5 15 3 9 -7 -5 -9 -4 -11 4 -6 6 4
9 12 6 17 -8 12 -22 12 -30 -1z"/>
<path d="M5475 3760 c-3 -5 1 -10 10 -10 9 0 13 5 10 10 -3 6 -8 10 -10 10 -2
0 -7 -4 -10 -10z"/>
<path d="M5525 3749 c-4 -6 -5 -12 -2 -15 2 -3 7 2 10 11 7 17 1 20 -8 4z"/>
<path d="M5585 3730 c-3 -6 1 -7 9 -4 18 7 21 14 7 14 -6 0 -13 -4 -16 -10z"/>
<path d="M5035 3609 c-4 -6 -4 -13 -1 -16 3 -4 6 -1 6 6 0 8 6 11 16 7 8 -3
12 -2 9 4 -8 13 -22 13 -30 -1z"/>
<path d="M4790 3589 c0 -5 5 -7 10 -4 6 3 10 8 10 11 0 2 -4 4 -10 4 -5 0 -10
-5 -10 -11z"/>
<path d="M4910 3596 c0 -2 7 -7 16 -10 8 -3 12 -2 9 4 -6 10 -25 14 -25 6z"/>
<path d="M5051 3544 c0 -11 3 -14 6 -6 3 7 2 16 -1 19 -3 4 -6 -2 -5 -13z"/>
<path d="M4855 3511 c-3 -6 3 -15 14 -20 16 -9 18 -8 14 9 -6 21 -18 26 -28
11z"/>
<path d="M4990 3409 c0 -5 5 -7 10 -4 6 3 10 8 10 11 0 2 -4 4 -10 4 -5 0 -10
-5 -10 -11z"/>
<path d="M5012 6330 c0 -14 2 -19 5 -12 2 6 2 18 0 25 -3 6 -5 1 -5 -13z"/>
<path d="M5030 6309 c0 -5 5 -7 10 -4 6 3 10 8 10 11 0 2 -4 4 -10 4 -5 0 -10
-5 -10 -11z"/>
<path d="M3030 6253 c32 -108 91 -248 146 -352 240 -453 604 -745 1054 -844
171 -38 460 -62 460 -38 0 5 -60 67 -133 138 -184 178 -527 452 -817 650 -74
51 -141 97 -147 103 -9 7 -13 7 -13 1 0 -6 42 -38 94 -72 69 -45 93 -66 89
-78 -3 -11 -2 -12 4 -4 11 16 87 -32 77 -49 -4 -7 -3 -8 4 -4 6 4 25 -3 42
-15 23 -18 27 -25 18 -36 -9 -11 -8 -13 3 -11 8 2 13 -2 12 -8 -1 -6 5 -11 13
-11 8 0 14 5 14 10 0 5 21 -7 48 -27 26 -19 46 -40 44 -46 -1 -7 2 -9 8 -5 12
8 152 -100 142 -110 -4 -4 -2 -5 3 -4 21 7 64 -32 60 -53 -3 -11 -2 -18 2 -14
3 3 13 0 21 -7 13 -9 14 -9 8 1 -4 6 -3 12 2 12 10 0 47 -39 47 -49 0 -3 5 -5
12 -3 8 2 10 -3 7 -13 -3 -8 -1 -15 6 -15 6 0 8 -5 4 -12 -6 -10 -4 -10 8 0
14 11 33 -3 142 -103 116 -107 131 -125 127 -148 -1 -5 3 -6 8 -3 5 4 12 2 15
-3 12 -20 -254 1 -405 31 -93 19 -106 24 -101 40 2 10 -1 18 -7 18 -5 0 -8 -7
-4 -16 8 -22 -30 -13 -145 33 -118 48 -164 72 -157 83 4 6 -1 7 -11 3 -12 -4
-15 -3 -10 5 5 8 1 10 -11 5 -16 -6 -17 -5 -3 13 14 17 14 18 -2 6 -14 -12
-21 -11 -38 1 -13 9 -17 17 -10 20 6 3 5 4 -2 3 -19 -5 -50 13 -43 24 3 6 -1
7 -10 4 -9 -4 -15 -3 -14 2 4 24 -3 34 -23 31 -16 -1 -22 3 -20 13 2 8 0 12
-4 8 -4 -4 -19 1 -34 12 -21 15 -27 27 -25 47 3 25 2 26 -11 8 -13 -17 -19
-14 -15 8 1 5 -3 6 -8 3 -11 -7 -33 19 -23 28 4 4 2 7 -3 6 -21 -5 -27 1 -15
15 10 12 8 14 -9 10 -11 -2 -24 1 -27 7 -4 6 -3 8 2 5 6 -3 16 -1 24 4 11 7 8
8 -12 5 -17 -3 -32 2 -44 15 -9 10 -14 19 -9 19 4 0 2 7 -5 15 -7 9 -15 13
-18 11 -2 -3 -18 11 -34 31 -26 33 -27 39 -14 49 9 6 13 14 9 17 -10 10 -25 8
-18 -2 3 -5 1 -12 -4 -16 -12 -7 -33 29 -23 40 4 5 1 5 -5 1 -12 -7 -18 5 -14
27 1 5 -4 5 -10 1 -9 -5 -10 -2 -6 10 4 9 3 15 -2 11 -5 -3 -19 10 -30 29 -25
40 -27 60 -3 29 l17 -23 2 27 c1 19 -1 22 -8 12 -7 -11 -9 -10 -9 5 0 15 -3
16 -14 7 -11 -10 -20 -1 -46 46 -38 71 -110 229 -110 243 0 6 8 10 18 10 14 0
15 2 2 10 -9 6 -17 5 -22 -3 -5 -8 -8 -7 -8 5 0 9 3 18 8 21 4 2 2 2 -5 1 -10
-2 -53 102 -53 129 0 18 396 -13 559 -44 163 -31 422 -112 407 -126 -7 -8 13
-43 24 -43 6 0 10 5 10 11 0 5 -4 8 -9 5 -5 -3 -11 1 -15 9 -3 8 0 15 7 15 18
-1 96 -44 99 -55 3 -10 7 -11 36 -14 7 0 11 -5 7 -10 -3 -5 0 -13 6 -17 8 -4
9 -3 5 4 -11 18 3 14 37 -10 72 -49 127 -100 120 -111 -3 -7 -3 -9 2 -5 11 11
36 -12 28 -25 -3 -5 -1 -7 4 -4 6 4 16 1 22 -7 9 -11 9 -15 -1 -20 -7 -3 -4
-4 7 -3 12 1 19 -3 17 -11 -1 -8 2 -11 7 -8 11 7 35 -20 27 -32 -3 -6 1 -15 9
-22 8 -7 15 -9 15 -4 0 11 39 -37 40 -48 0 -5 -7 -8 -15 -8 -9 0 -12 -6 -8
-16 6 -16 7 -16 18 0 11 14 17 9 47 -37 55 -83 60 -95 48 -116 -8 -17 -7 -19
9 -16 13 2 23 -7 35 -32 9 -19 13 -39 10 -45 -4 -6 -3 -8 3 -5 13 8 44 -58 37
-80 -4 -12 -3 -14 3 -6 12 16 79 -150 68 -167 -5 -8 -4 -11 2 -7 5 3 15 -9 21
-29 l10 -35 -38 43 c-23 27 -33 45 -26 48 6 3 11 11 10 18 -1 6 -2 17 -3 23 0
5 -5 8 -10 5 -5 -4 -12 0 -14 6 -4 8 -6 7 -6 -4 -1 -9 5 -18 12 -21 9 -3 9 -8
1 -16 -8 -9 -13 -9 -22 1 -5 7 -11 18 -11 23 -1 6 -6 10 -11 10 -6 0 -26 13
-46 28 -30 25 -33 31 -22 45 11 15 11 15 -3 5 -13 -11 -19 -9 -34 7 -10 11
-15 20 -10 20 4 0 2 7 -5 15 -7 8 -16 13 -20 10 -14 -8 -135 96 -132 114 2 14
1 14 -7 1 -10 -14 -15 -7 -12 13 1 5 -3 6 -9 2 -14 -9 -42 14 -33 28 3 6 1 7
-5 3 -20 -12 -34 4 -20 22 11 15 11 15 -3 5 -13 -10 -21 -8 -48 11 -18 13 -28
26 -24 28 4 3 2 3 -5 2 -19 -5 -89 49 -84 65 3 10 -2 11 -18 6 -17 -5 -21 -4
-15 5 5 8 4 11 -3 6 -16 -10 -119 56 -115 74 4 11 2 12 -5 2 -10 -15 -45 -5
-35 11 3 5 1 7 -5 3 -14 -9 -103 35 -95 47 3 6 1 7 -4 4 -13 -8 -224 73 -218
84 3 4 -4 5 -16 2 -17 -5 -14 -9 23 -24 23 -10 93 -38 154 -64 287 -118 635
-365 907 -643 121 -123 120 -123 60 38 -104 279 -264 545 -409 680 -201 187
-476 307 -834 364 -109 18 -332 36 -437 36 l-71 0 18 -57z m915 -611 c-3 -3
-11 0 -18 7 -9 10 -8 11 6 5 10 -3 15 -9 12 -12z"/>
<path d="M6721 6299 c-269 -22 -526 -86 -730 -180 -326 -151 -522 -399 -707
-892 -24 -65 -44 -121 -44 -124 0 -3 50 47 112 112 215 225 478 419 757 559
93 47 340 150 346 144 2 -2 -58 -44 -133 -95 -274 -184 -669 -502 -874 -704
l-123 -120 155 5 c433 14 756 150 1039 435 146 148 243 287 342 495 48 100
129 325 129 359 0 15 -10 17 -82 16 -46 -1 -130 -6 -187 -10z m254 -21 c-4
-13 -21 -67 -38 -120 -27 -84 -33 -96 -46 -85 -14 10 -14 10 -4 -4 16 -19 -2
-83 -20 -72 -6 3 -7 1 -3 -5 4 -7 -5 -39 -19 -71 -21 -45 -31 -58 -44 -54 -12
4 -13 3 -2 -5 10 -7 11 -14 2 -31 -7 -12 -17 -18 -23 -15 -7 4 -8 3 -4 -5 10
-15 -62 -133 -76 -125 -7 4 -8 2 -4 -4 4 -6 -1 -23 -10 -37 -14 -21 -19 -23
-33 -13 -13 10 -14 10 -4 -2 14 -15 -2 -55 -18 -45 -5 4 -8 1 -7 -7 2 -7 -3
-12 -10 -10 -8 1 -11 -2 -7 -8 8 -14 -95 -121 -109 -113 -6 3 -8 2 -3 -2 8 -9
-70 -95 -86 -95 -5 0 -3 8 4 18 13 15 12 16 -3 4 -10 -8 -16 -19 -15 -25 1 -7
-4 -11 -10 -10 -7 2 -12 -3 -10 -10 1 -6 -6 -12 -15 -12 -9 0 -20 -4 -25 -9
-5 -5 -2 -6 6 -1 9 5 12 4 8 -2 -25 -40 -323 -200 -353 -189 -8 3 -13 2 -10
-3 7 -11 -157 -57 -274 -76 -52 -8 -153 -18 -225 -21 l-130 -6 95 96 c116 119
258 241 276 240 7 -1 13 1 12 5 -2 19 4 22 20 10 15 -13 16 -12 4 3 -11 14 -9
19 16 37 16 11 33 17 37 13 5 -4 5 -2 2 4 -9 15 59 67 75 58 6 -4 8 -3 4 4 -7
12 42 54 54 47 5 -3 12 0 16 6 5 8 3 9 -7 4 -26 -15 4 11 79 69 41 31 79 53
85 49 6 -3 7 -1 3 5 -8 13 28 35 39 24 5 -4 5 -2 1 5 -8 14 27 36 39 25 5 -4
5 -2 1 5 -7 13 49 57 63 48 5 -3 13 0 17 6 5 8 3 9 -7 4 -36 -20 12 17 76 59
116 76 118 77 107 88 -11 11 -111 -24 -255 -88 -42 -20 -82 -32 -89 -28 -6 4
-8 3 -5 -3 3 -5 -25 -26 -64 -47 -38 -21 -69 -34 -69 -30 0 4 -6 0 -13 -11 -9
-12 -19 -15 -28 -10 -8 5 -11 5 -7 0 12 -13 -25 -34 -49 -28 -13 3 -23 1 -23
-4 0 -18 -50 -64 -62 -57 -6 4 -8 3 -5 -3 4 -6 1 -13 -7 -16 -8 -3 -61 -42
-119 -85 -58 -44 -107 -78 -110 -76 -3 3 -8 0 -13 -7 -5 -8 -3 -10 7 -4 14 8
-69 -70 -127 -118 -17 -15 -35 -23 -40 -19 -5 4 -6 3 -1 -2 9 -11 -51 -76 -70
-76 -7 0 -13 -5 -13 -11 0 -5 6 -7 13 -3 6 4 1 -5 -12 -19 -14 -15 -26 -26
-27 -24 -6 5 49 146 55 142 4 -2 13 1 21 7 12 8 12 9 -2 4 -19 -6 -22 2 -12
29 5 11 9 13 14 5 4 -6 7 2 7 18 0 39 110 265 125 256 7 -5 8 -3 4 5 -10 15
80 154 94 146 5 -3 12 0 16 6 5 8 3 9 -6 4 -8 -5 -11 -3 -8 6 3 8 11 13 17 11
7 -1 10 2 7 7 -4 5 18 36 49 69 76 82 211 185 164 125 -13 -16 -12 -17 3 -4
10 7 16 17 13 21 -3 5 10 18 29 29 37 24 51 27 40 9 -4 -7 -3 -8 5 -4 6 4 9
11 6 15 -6 11 44 33 57 25 6 -4 8 -2 5 3 -8 13 20 26 35 16 6 -3 8 -1 5 4 -18
29 396 151 468 138 21 -3 24 -3 11 3 -35 15 152 36 452 50 30 2 33 0 27 -20z
m-1085 -613 c0 -2 -10 -10 -22 -16 -21 -11 -22 -11 -9 4 13 16 31 23 31 12z"/>
<path d="M6930 6280 c0 -5 6 -10 13 -10 8 0 7 -4 -3 -11 -13 -9 -13 -10 0 -6
21 5 26 37 6 37 -9 0 -16 -4 -16 -10z"/>
<path d="M6737 6274 c7 -3 9 -13 6 -22 -5 -13 -3 -14 7 -5 14 13 5 33 -13 32
-9 0 -9 -2 0 -5z"/>
<path d="M6844 6273 c8 -9 46 -11 51 -3 3 5 -8 8 -25 8 -17 -1 -29 -3 -26 -5z"/>
<path d="M6550 6256 c0 -2 7 -6 15 -10 8 -3 15 -1 15 4 0 6 -7 10 -15 10 -8 0
-15 -2 -15 -4z"/>
<path d="M6175 6170 c-13 -6 -15 -9 -5 -9 8 0 22 4 30 9 18 12 2 12 -25 0z"/>
<path d="M6189 6133 c-13 -16 -12 -17 4 -4 9 7 17 15 17 17 0 8 -8 3 -21 -13z"/>
<path d="M6060 6119 c0 -5 5 -7 10 -4 6 3 10 8 10 11 0 2 -4 4 -10 4 -5 0 -10
-5 -10 -11z"/>
<path d="M6030 6110 c0 -5 5 -10 10 -10 6 0 10 5 10 10 0 6 -4 10 -10 10 -5 0
-10 -4 -10 -10z"/>
<path d="M6576 5908 c3 -5 10 -6 15 -3 13 9 11 12 -6 12 -8 0 -12 -4 -9 -9z"/>
<path d="M5657 5857 c-3 -8 1 -14 9 -14 8 0 14 6 14 14 0 7 -4 13 -9 13 -5 0
-11 -6 -14 -13z"/>
<path d="M6455 5859 c-4 -6 -5 -12 -2 -15 2 -3 7 2 10 11 7 17 1 20 -8 4z"/>
<path d="M6080 5816 c0 -8 4 -17 9 -20 5 -4 7 3 4 14 -6 23 -13 26 -13 6z"/>
<path d="M6305 5790 c-3 -5 -1 -10 4 -10 6 0 11 5 11 10 0 6 -2 10 -4 10 -3 0
-8 -4 -11 -10z"/>
<path d="M6568 5783 c7 -3 16 -2 19 1 4 3 -2 6 -13 5 -11 0 -14 -3 -6 -6z"/>
<path d="M6734 5772 c3 -5 1 -12 -6 -14 -8 -3 -9 -6 -1 -11 6 -4 13 0 17 8 3
8 0 17 -6 21 -6 4 -8 3 -4 -4z"/>
<path d="M5995 5750 c3 -5 8 -10 11 -10 2 0 4 5 4 10 0 6 -5 10 -11 10 -5 0
-7 -4 -4 -10z"/>
<path d="M6270 5731 c0 -6 4 -13 10 -16 6 -3 7 1 4 9 -7 18 -14 21 -14 7z"/>
<path d="M6180 5646 c0 -2 8 -10 18 -17 15 -13 16 -12 3 4 -13 16 -21 21 -21
13z"/>
<path d="M6298 5633 c7 -3 16 -2 19 1 4 3 -2 6 -13 5 -11 0 -14 -3 -6 -6z"/>
<path d="M5711 5604 c0 -11 3 -14 6 -6 3 7 2 16 -1 19 -3 4 -6 -2 -5 -13z"/>
<path d="M6065 5610 c-4 -6 3 -10 14 -10 25 0 27 6 6 13 -8 4 -17 2 -20 -3z"/>
<path d="M5610 5513 c0 -19 14 -22 35 -7 10 8 14 14 8 14 -7 0 -15 -5 -19 -11
-4 -8 -9 -7 -15 2 -6 10 -9 10 -9 2z"/>
<path d="M6270 5420 c-8 -5 -12 -12 -9 -15 4 -3 12 1 19 10 14 17 11 19 -10 5z"/>
<path d="M5443 5345 c0 -8 4 -12 9 -9 5 3 6 10 3 15 -9 13 -12 11 -12 -6z"/>
<path d="M6080 5320 c-9 -6 -10 -10 -3 -10 6 0 15 5 18 10 8 12 4 12 -15 0z"/>
<path d="M5666 5292 c-3 -5 1 -9 9 -9 8 0 12 4 9 9 -3 4 -7 8 -9 8 -2 0 -6 -4
-9 -8z"/>
<path d="M6236 5265 c-8 -21 28 -19 45 3 11 14 11 15 -1 5 -17 -15 -34 -17
-25 -3 3 6 2 10 -3 10 -6 0 -12 -7 -16 -15z"/>
<path d="M5331 5251 c-1 -20 1 -21 14 -11 16 14 21 25 6 16 -5 -4 -12 0 -14 6
-3 7 -6 2 -6 -11z"/>
<path d="M5570 5215 c-7 -9 -8 -15 -2 -15 5 0 12 7 16 15 3 8 4 15 2 15 -2 0
-9 -7 -16 -15z"/>
<path d="M6088 5193 c7 -3 16 -2 19 1 4 3 -2 6 -13 5 -11 0 -14 -3 -6 -6z"/>
<path d="M6120 5180 c-9 -6 -10 -10 -3 -10 6 0 15 5 18 10 8 12 4 12 -15 0z"/>
<path d="M5502 5148 c-16 -16 -15 -28 2 -28 7 0 16 9 19 20 6 23 -3 26 -21 8z"/>
<path d="M5840 5100 c0 -5 5 -10 11 -10 5 0 7 5 4 10 -3 6 -8 10 -11 10 -2 0
-4 -4 -4 -10z"/>
<path d="M5407 5050 l-29 -27 43 -1 c53 -2 48 7 -10 17 -3 1 4 7 15 15 10 8
17 16 14 19 -3 2 -18 -8 -33 -23z"/>
<path d="M5500 5030 c-13 -8 -12 -10 3 -10 9 0 17 5 17 10 0 12 -1 12 -20 0z"/>
<path d="M5012 6275 c2 -18 5 -21 15 -13 17 14 16 25 -2 32 -11 4 -14 -1 -13
-19z"/>
<path d="M3050 6271 c0 -11 9 -21 23 -24 21 -6 21 -5 3 8 -10 7 -15 18 -11 24
3 6 1 11 -4 11 -6 0 -11 -8 -11 -19z"/>
<path d="M3197 6269 c7 -7 15 -10 18 -7 3 3 -2 9 -12 12 -14 6 -15 5 -6 -5z"/>
<path d="M3435 6250 c-2 -3 5 -6 15 -7 11 -1 22 2 25 7 3 5 -4 8 -16 7 -11 -1
-22 -4 -24 -7z"/>
<path d="M5255 6251 c-3 -5 -2 -12 3 -15 5 -3 9 1 9 9 0 17 -3 19 -12 6z"/>
<path d="M3113 6235 c0 -8 4 -12 9 -9 5 3 6 10 3 15 -9 13 -12 11 -12 -6z"/>
<path d="M3515 6240 c3 -5 8 -10 11 -10 2 0 4 5 4 10 0 6 -5 10 -11 10 -5 0
-7 -4 -4 -10z"/>
<path d="M5011 6178 c1 -35 4 -52 6 -39 4 19 7 21 14 10 6 -10 9 -5 9 17 0 16
-5 35 -12 42 -9 9 -9 12 1 12 7 0 9 5 6 10 -16 25 -25 5 -24 -52z"/>
<path d="M3946 6122 c-3 -5 1 -9 9 -9 8 0 12 4 9 9 -3 4 -7 8 -9 8 -2 0 -6 -4
-9 -8z"/>
<path d="M5011 6094 c0 -11 3 -14 6 -6 3 7 2 16 -1 19 -3 4 -6 -2 -5 -13z"/>
<path d="M5480 6099 c0 -5 5 -7 10 -4 6 3 10 8 10 11 0 2 -4 4 -10 4 -5 0 -10
-5 -10 -11z"/>
<path d="M5031 6083 c0 -13 -5 -23 -11 -23 -5 0 -10 -5 -10 -12 0 -8 6 -7 16
4 9 8 14 24 11 34 -4 16 -5 15 -6 -3z"/>
<path d="M4801 6064 c0 -11 3 -14 6 -6 3 7 2 16 -1 19 -3 4 -6 -2 -5 -13z"/>
<path d="M5047 6039 c7 -7 15 -10 18 -7 3 3 -2 9 -12 12 -14 6 -15 5 -6 -5z"/>
<path d="M5238 6033 c7 -3 16 -2 19 1 4 3 -2 6 -13 5 -11 0 -14 -3 -6 -6z"/>
<path d="M4820 6019 c0 -5 5 -7 10 -4 6 3 10 8 10 11 0 2 -4 4 -10 4 -5 0 -10
-5 -10 -11z"/>
<path d="M5010 5945 c0 -14 4 -25 9 -25 4 0 6 11 3 25 -2 14 -6 25 -8 25 -2 0
-4 -11 -4 -25z"/>
<path d="M4743 5935 c0 -8 7 -15 15 -15 12 0 12 3 2 15 -7 8 -13 15 -15 15 -1
0 -2 -7 -2 -15z"/>
<path d="M3670 5920 c-13 -8 -12 -10 3 -10 9 0 17 5 17 10 0 12 -1 12 -20 0z"/>
<path d="M5011 5894 c0 -11 3 -14 6 -6 3 7 2 16 -1 19 -3 4 -6 -2 -5 -13z"/>
<path d="M4324 5860 c1 -14 6 -24 9 -22 11 4 11 6 -1 27 -11 19 -12 18 -8 -5z"/>
<path d="M5176 5867 c3 -10 9 -15 12 -12 3 3 0 11 -7 18 -10 9 -11 8 -5 -6z"/>
<path d="M3901 5824 c0 -11 3 -14 6 -6 3 7 2 16 -1 19 -3 4 -6 -2 -5 -13z"/>
<path d="M5025 5830 c3 -5 8 -10 11 -10 2 0 4 5 4 10 0 6 -5 10 -11 10 -5 0
-7 -4 -4 -10z"/>
<path d="M4407 5803 c-4 -3 -7 -11 -7 -17 0 -6 5 -5 12 2 6 6 9 14 7 17 -3 3
-9 2 -12 -2z"/>
<path d="M4810 5770 c-13 -8 -12 -10 3 -10 9 0 17 5 17 10 0 12 -1 12 -20 0z"/>
<path d="M4050 5740 c13 -11 25 -20 28 -20 3 0 -3 9 -13 20 -10 11 -23 20 -28
20 -6 0 0 -9 13 -20z"/>
<path d="M3368 5733 c7 -3 16 -2 19 1 4 3 -2 6 -13 5 -11 0 -14 -3 -6 -6z"/>
<path d="M3640 5721 c0 -5 5 -13 10 -16 6 -3 10 -2 10 4 0 5 -4 13 -10 16 -5
3 -10 2 -10 -4z"/>
<path d="M4108 5713 c7 -3 16 -2 19 1 4 3 -2 6 -13 5 -11 0 -14 -3 -6 -6z"/>
<path d="M4181 5667 c2 -1 13 -9 24 -17 19 -14 19 -14 6 3 -7 9 -18 17 -24 17
-6 0 -8 -1 -6 -3z"/>
<path d="M5019 5643 c-13 -16 -12 -17 4 -4 9 7 17 15 17 17 0 8 -8 3 -21 -13z"/>
<path d="M4316 5601 c-3 -5 1 -11 9 -14 9 -4 12 -1 8 9 -6 16 -10 17 -17 5z"/>
<path d="M5010 5554 c0 -8 5 -12 10 -9 6 4 8 11 5 16 -9 14 -15 11 -15 -7z"/>
<path d="M3669 5531 c6 -10 7 -21 3 -25 -3 -4 1 -4 10 -1 15 6 15 8 0 26 -21
24 -26 24 -13 0z"/>
<path d="M5010 5505 c0 -8 2 -15 4 -15 2 0 6 7 10 15 3 8 1 15 -4 15 -6 0 -10
-7 -10 -15z"/>
<path d="M5017 5473 c-4 -3 -7 -20 -7 -37 0 -24 3 -27 10 -16 8 12 10 12 10 1
0 -8 3 -11 6 -8 4 4 1 13 -6 22 -7 8 -10 22 -6 30 6 16 3 19 -7 8z"/>
<path d="M5010 5368 c0 -21 2 -38 4 -38 9 0 12 50 5 62 -6 8 -9 -1 -9 -24z"/>
<path d="M4648 5363 c7 -3 16 -2 19 1 4 3 -2 6 -13 5 -11 0 -14 -3 -6 -6z"/>
<path d="M4403 5255 c0 -8 4 -12 9 -9 5 3 6 10 3 15 -9 13 -12 11 -12 -6z"/>
<path d="M5085 5240 c3 -5 8 -10 11 -10 2 0 4 5 4 10 0 6 -5 10 -11 10 -5 0
-7 -4 -4 -10z"/>
<path d="M4415 5210 c-3 -5 -1 -10 4 -10 6 0 11 5 11 10 0 6 -2 10 -4 10 -3 0
-8 -4 -11 -10z"/>
<path d="M4447 5209 c7 -7 15 -10 18 -7 3 3 -2 9 -12 12 -14 6 -15 5 -6 -5z"/>
<path d="M5085 5210 c3 -5 8 -10 11 -10 2 0 4 5 4 10 0 6 -5 10 -11 10 -5 0
-7 -4 -4 -10z"/>
<path d="M5081 5164 c0 -11 3 -14 6 -6 3 7 2 16 -1 19 -3 4 -6 -2 -5 -13z"/>
<path d="M5010 5110 c0 -5 5 -10 11 -10 5 0 7 5 4 10 -3 6 -8 10 -11 10 -2 0
-4 -4 -4 -10z"/>
<path d="M5002 5060 c0 -14 2 -19 5 -12 2 6 2 18 0 25 -3 6 -5 1 -5 -13z"/>
<path d="M5002 4990 c0 -14 2 -19 5 -12 2 6 2 18 0 25 -3 6 -5 1 -5 -13z"/>
<path d="M5081 4994 c0 -11 3 -14 6 -6 3 7 2 16 -1 19 -3 4 -6 -2 -5 -13z"/>
<path d="M5043 4948 c-13 -6 -23 -15 -23 -20 0 -5 -4 -7 -9 -3 -6 3 -9 -4 -8
-15 2 -25 27 -27 27 -1 0 10 10 26 23 34 26 18 22 20 -10 5z"/>
<path d="M5071 4868 c-7 -11 -8 -17 -3 -14 6 3 12 3 15 -1 2 -5 2 -3 1 4 -2 6
2 13 9 16 7 2 7 6 1 10 -5 3 -16 -3 -23 -15z"/>
<path d="M5045 4820 c-3 -5 -1 -10 4 -10 6 0 11 5 11 10 0 6 -2 10 -4 10 -3 0
-8 -4 -11 -10z"/>
<path d="M5087 4778 c4 -71 13 -74 13 -5 0 32 -4 57 -8 57 -4 0 -6 -23 -5 -52z"/>
<path d="M5066 4793 c-6 -14 -5 -15 5 -6 7 7 10 15 7 18 -3 3 -9 -2 -12 -12z"/>
<path d="M5001 4778 c0 -16 1 -28 3 -28 14 0 36 14 36 22 0 6 -6 6 -14 -1 -12
-10 -15 -8 -19 11 -4 20 -4 20 -6 -4z"/>
<path d="M5020 4690 c0 -5 5 -10 10 -10 6 0 10 5 10 10 0 6 -4 10 -10 10 -5 0
-10 -4 -10 -10z"/>
<path d="M5092 4650 c0 -14 2 -19 5 -12 2 6 2 18 0 25 -3 6 -5 1 -5 -13z"/>
<path d="M5632 3145 c-107 -30 -186 -96 -234 -194 -34 -68 -38 -205 -8 -283
28 -76 104 -159 178 -195 51 -25 68 -28 157 -28 89 0 106 3 156 28 32 15 76
45 100 66 l43 38 -59 46 -59 47 -31 -30 c-110 -106 -295 -63 -335 78 -40 145
29 278 150 290 71 7 112 -4 164 -44 l46 -35 55 42 c30 23 55 45 55 50 0 16
-109 90 -160 110 -71 27 -153 32 -218 14z"/>
<path d="M7152 3144 c-289 -77 -369 -456 -134 -629 95 -70 234 -93 350 -57
104 33 170 89 223 192 20 38 23 60 24 140 0 81 -4 103 -26 150 -49 105 -134
176 -244 205 -72 18 -123 18 -193 -1z m160 -134 c87 -24 139 -106 139 -216 0
-85 -29 -146 -90 -189 -37 -26 -51 -30 -111 -30 -60 0 -74 4 -112 30 -78 56
-111 149 -88 252 27 121 140 187 262 153z"/>
<path d="M2520 2795 l0 -345 80 0 80 0 0 345 0 345 -80 0 -80 0 0 -345z"/>
<path d="M2930 2795 l0 -345 75 0 75 0 2 216 3 216 83 -146 c46 -80 87 -148
92 -151 20 -12 39 14 120 155 47 82 87 150 90 150 3 0 4 -99 2 -220 l-3 -220
81 0 80 0 0 345 0 345 -87 0 -88 0 -89 -156 c-48 -85 -91 -153 -94 -150 -3 4
-42 73 -86 154 l-81 147 -87 3 -88 3 0 -346z"/>
<path d="M3870 2795 l0 -345 75 0 74 0 3 103 3 102 110 5 c129 7 184 28 240
92 60 71 68 204 15 278 -65 91 -126 110 -352 110 l-168 0 0 -345z m367 182
c23 -23 28 -36 28 -77 0 -41 -5 -54 -28 -77 -25 -26 -34 -28 -122 -31 l-95 -4
0 112 0 112 95 -4 c88 -3 97 -5 122 -31z"/>
<path d="M4722 2988 c-91 -231 -202 -524 -202 -531 0 -4 36 -7 79 -7 l79 0 24
65 23 65 151 0 150 0 23 -65 23 -65 84 0 84 0 -17 43 c-10 23 -70 177 -134
342 l-116 300 -96 3 -95 3 -60 -153z m201 -133 c25 -66 48 -128 52 -137 7 -17
-2 -18 -100 -18 -82 0 -106 3 -103 13 55 148 101 267 104 265 1 -2 23 -57 47
-123z"/>
<path d="M6170 3070 l0 -70 105 0 105 0 0 -275 0 -275 80 0 80 0 0 275 0 275
105 0 105 0 0 70 0 70 -290 0 -290 0 0 -70z"/>
<path d="M2239 2133 c-6 -16 -62 -161 -124 -323 -63 -162 -117 -303 -120 -312
-6 -16 1 -18 73 -18 l80 0 24 63 24 62 141 3 141 3 23 -66 23 -65 83 0 83 0
-18 48 c-10 26 -69 179 -132 340 l-113 292 -89 0 c-87 0 -89 0 -99 -27z m146
-268 c21 -60 40 -114 42 -120 2 -6 -31 -9 -89 -8 -70 2 -92 6 -90 15 13 52 86
237 92 231 4 -4 24 -57 45 -118z"/>
<path d="M2830 1820 l0 -340 75 0 75 0 2 213 3 212 85 -147 c68 -119 89 -148
107 -148 17 0 39 29 110 152 l88 152 3 -217 2 -217 75 0 75 0 0 340 0 340 -85
0 -84 0 -88 -155 c-48 -85 -90 -155 -93 -155 -3 0 -43 70 -90 155 l-85 155
-87 0 -88 0 0 -340z"/>
<path d="M3750 1821 l0 -341 180 0 c98 0 202 5 229 11 90 19 161 90 161 161 0
73 -50 146 -116 170 l-33 12 39 17 c58 26 82 70 77 142 -4 68 -25 102 -88 137
-42 24 -52 25 -246 28 l-203 4 0 -341z m360 194 c28 -25 27 -86 -1 -111 -17
-15 -40 -20 -115 -22 l-94 -4 0 82 0 83 95 -5 c73 -4 100 -10 115 -23z m22
-282 c26 -26 28 -77 4 -101 -13 -13 -40 -18 -126 -20 l-110 -4 0 77 0 77 105
-4 c91 -3 108 -6 127 -25z"/>
<path d="M4490 1820 l0 -340 80 0 80 0 0 340 0 340 -80 0 -80 0 0 -340z"/>
<path d="M4870 1820 l0 -340 250 0 251 0 -3 68 -3 67 -172 -4 -173 -3 0 71 0
70 151 3 151 3 0 65 0 65 -151 3 -151 3 0 70 0 71 168 -3 167 -3 3 67 3 67
-246 0 -245 0 0 -340z"/>
<path d="M5550 1820 l0 -340 80 0 80 0 2 209 3 209 150 -209 150 -209 78 0 77
0 0 340 0 340 -80 0 -80 0 -2 -210 -3 -211 -150 210 -150 211 -77 0 -78 0 0
-340z"/>
<path d="M6330 2090 l0 -70 105 0 105 0 0 -270 0 -270 80 0 80 0 0 270 0 270
105 0 105 0 0 70 0 70 -290 0 -290 0 0 -70z"/>
<path d="M7130 1998 c-34 -90 -93 -243 -130 -340 l-68 -178 81 0 82 0 23 65
24 65 142 0 142 0 23 -65 23 -65 83 0 84 0 -35 88 c-19 48 -78 201 -131 340
l-96 252 -92 0 -92 0 -63 -162z m204 -137 c25 -69 46 -125 46 -125 0 -1 -43
-1 -95 -1 -52 0 -95 3 -95 6 0 4 18 55 40 115 23 60 43 115 46 123 2 8 6 12 9
10 2 -3 24 -60 49 -128z"/>
<path d="M7790 1820 l0 -340 240 0 241 0 -3 67 -3 67 -160 0 -160 1 -3 273 -2
272 -75 0 -75 0 0 -340z"/>
<path d="M4132 1098 l3 -33 986 -3 987 -2 4 30 c3 17 2 32 0 35 -3 3 -450 5
-994 5 l-989 0 3 -32z m1968 -9 c0 -11 -4 -18 -9 -14 -9 5 -1067 7 -1649 2
-282 -2 -302 -1 -302 16 0 16 53 17 980 17 l980 0 0 -21z"/>
</g>
</svg>
